<svg width="117" height="47" viewBox="0 0 117 47" fill="none" xmlns="http://www.w3.org/2000/svg">
<path d="M13.77 22.72C15.47 22.72 16.99 22.43 18.33 21.85C19.67 21.27 20.79 20.51 21.69 19.57C22.61 18.63 23.31 17.58 23.79 16.42C24.27 15.24 24.51 14.05 24.51 12.85C24.51 11.31 24.26 9.9 23.76 8.62C23.26 7.34 22.56 6.25 21.66 5.35C20.76 4.43 19.69 3.72 18.45 3.22C17.23 2.7 15.89 2.44 14.43 2.44C12.85 2.44 11.41 2.69 10.11 3.19C8.81 3.69 7.69 4.39 6.75 5.29C5.83 6.19 5.11 7.27 4.59 8.53C4.07 9.77 3.81 11.14 3.81 12.64C3.81 14.2 4.04 15.61 4.5 16.87C4.98 18.11 5.65 19.17 6.51 20.05C7.39 20.91 8.44 21.57 9.66 22.03C10.9 22.49 12.27 22.72 13.77 22.72ZM19.44 25.48C20.04 24.62 20.6 23.82 21.12 23.08C21.64 22.32 22.11 21.58 22.53 20.86C21.37 22.16 19.96 23.17 18.3 23.89C16.64 24.59 14.87 24.94 12.99 24.94C11.25 24.94 9.64 24.66 8.16 24.1C6.7 23.52 5.43 22.7 4.35 21.64C3.27 20.58 2.43 19.31 1.83 17.83C1.23 16.33 0.93 14.66 0.93 12.82C0.93 11 1.27 9.32 1.95 7.78C2.63 6.22 3.57 4.87 4.77 3.73C5.97 2.59 7.39 1.7 9.03 1.06C10.69 0.399997 12.5 0.0699966 14.46 0.0699966C16.34 0.0699966 18.06 0.389997 19.62 1.03C21.2 1.67 22.55 2.58 23.67 3.76C24.81 4.92 25.69 6.32 26.31 7.96C26.95 9.58 27.27 11.39 27.27 13.39C27.27 14.49 27.15 15.54 26.91 16.54C26.69 17.54 26.35 18.54 25.89 19.54C25.45 20.54 24.91 21.57 24.27 22.63C23.63 23.67 22.9 24.79 22.08 25.99L10.95 42.31C10.65 42.77 10.16 43 9.48 43H6.87L19.44 25.48ZM48.5597 22.72C50.2597 22.72 51.7797 22.43 53.1197 21.85C54.4597 21.27 55.5797 20.51 56.4797 19.57C57.3997 18.63 58.0997 17.58 58.5797 16.42C59.0597 15.24 59.2997 14.05 59.2997 12.85C59.2997 11.31 59.0497 9.9 58.5497 8.62C58.0497 7.34 57.3497 6.25 56.4497 5.35C55.5497 4.43 54.4797 3.72 53.2397 3.22C52.0197 2.7 50.6797 2.44 49.2197 2.44C47.6397 2.44 46.1997 2.69 44.8997 3.19C43.5997 3.69 42.4797 4.39 41.5397 5.29C40.6197 6.19 39.8997 7.27 39.3797 8.53C38.8597 9.77 38.5997 11.14 38.5997 12.64C38.5997 14.2 38.8297 15.61 39.2897 16.87C39.7697 18.11 40.4397 19.17 41.2997 20.05C42.1797 20.91 43.2297 21.57 44.4497 22.03C45.6897 22.49 47.0597 22.72 48.5597 22.72ZM54.2297 25.48C54.8297 24.62 55.3897 23.82 55.9097 23.08C56.4297 22.32 56.8997 21.58 57.3197 20.86C56.1597 22.16 54.7497 23.17 53.0897 23.89C51.4297 24.59 49.6597 24.94 47.7797 24.94C46.0397 24.94 44.4297 24.66 42.9497 24.1C41.4897 23.52 40.2197 22.7 39.1397 21.64C38.0597 20.58 37.2197 19.31 36.6197 17.83C36.0197 16.33 35.7197 14.66 35.7197 12.82C35.7197 11 36.0597 9.32 36.7397 7.78C37.4197 6.22 38.3597 4.87 39.5597 3.73C40.7597 2.59 42.1797 1.7 43.8197 1.06C45.4797 0.399997 47.2897 0.0699966 49.2497 0.0699966C51.1297 0.0699966 52.8497 0.389997 54.4097 1.03C55.9897 1.67 57.3397 2.58 58.4597 3.76C59.5997 4.92 60.4797 6.32 61.0997 7.96C61.7397 9.58 62.0597 11.39 62.0597 13.39C62.0597 14.49 61.9397 15.54 61.6997 16.54C61.4797 17.54 61.1397 18.54 60.6797 19.54C60.2397 20.54 59.6997 21.57 59.0597 22.63C58.4197 23.67 57.6897 24.79 56.8697 25.99L45.7397 42.31C45.4397 42.77 44.9497 43 44.2697 43H41.6597L54.2297 25.48ZM73.5873 43.027C73.4853 43.303 73.3203 43.51 73.0923 43.648C72.8703 43.786 72.6423 43.855 72.4083 43.855H71.4633L76.7193 30.409C76.8153 30.157 76.9623 29.965 77.1603 29.833C77.3583 29.695 77.5893 29.626 77.8533 29.626H78.8073L73.5873 43.027ZM92.702 33.766L87.671 45.538C87.605 45.694 87.518 45.811 87.41 45.889C87.308 45.973 87.149 46.015 86.933 46.015H85.277L87.005 42.307L83.27 33.766H85.223C85.397 33.766 85.532 33.808 85.628 33.892C85.73 33.976 85.805 34.072 85.853 34.18L87.815 38.968C87.881 39.13 87.935 39.292 87.977 39.454C88.025 39.616 88.07 39.781 88.112 39.949C88.166 39.781 88.22 39.616 88.274 39.454C88.328 39.286 88.388 39.121 88.454 38.959L90.308 34.18C90.356 34.06 90.434 33.961 90.542 33.883C90.656 33.805 90.782 33.766 90.92 33.766H92.702ZM99.459 37.321C99.459 37.033 99.417 36.763 99.333 36.511C99.255 36.253 99.135 36.028 98.973 35.836C98.811 35.644 98.604 35.494 98.352 35.386C98.106 35.272 97.818 35.215 97.488 35.215C96.846 35.215 96.339 35.398 95.967 35.764C95.601 36.13 95.367 36.649 95.265 37.321H99.459ZM95.22 38.662C95.256 39.136 95.34 39.547 95.472 39.895C95.604 40.237 95.778 40.522 95.994 40.75C96.21 40.972 96.465 41.14 96.759 41.254C97.059 41.362 97.389 41.416 97.749 41.416C98.109 41.416 98.418 41.374 98.676 41.29C98.94 41.206 99.168 41.113 99.36 41.011C99.558 40.909 99.729 40.816 99.873 40.732C100.023 40.648 100.167 40.606 100.305 40.606C100.491 40.606 100.629 40.675 100.719 40.813L101.358 41.623C101.112 41.911 100.836 42.154 100.53 42.352C100.224 42.544 99.903 42.7 99.567 42.82C99.237 42.934 98.898 43.015 98.55 43.063C98.208 43.111 97.875 43.135 97.551 43.135C96.909 43.135 96.312 43.03 95.76 42.82C95.208 42.604 94.728 42.289 94.32 41.875C93.912 41.455 93.591 40.939 93.357 40.327C93.123 39.709 93.006 38.995 93.006 38.185C93.006 37.555 93.108 36.964 93.312 36.412C93.516 35.854 93.807 35.371 94.185 34.963C94.569 34.549 95.034 34.222 95.58 33.982C96.132 33.742 96.753 33.622 97.443 33.622C98.025 33.622 98.562 33.715 99.054 33.901C99.546 34.087 99.969 34.36 100.323 34.72C100.677 35.074 100.953 35.512 101.151 36.034C101.355 36.55 101.457 37.141 101.457 37.807C101.457 38.143 101.421 38.371 101.349 38.491C101.277 38.605 101.139 38.662 100.935 38.662H95.22ZM107.988 39.058C107.346 39.088 106.806 39.145 106.368 39.229C105.93 39.307 105.579 39.409 105.315 39.535C105.051 39.661 104.862 39.808 104.748 39.976C104.634 40.144 104.577 40.327 104.577 40.525C104.577 40.915 104.691 41.194 104.919 41.362C105.153 41.53 105.456 41.614 105.828 41.614C106.284 41.614 106.677 41.533 107.007 41.371C107.343 41.203 107.67 40.951 107.988 40.615V39.058ZM102.894 35.053C103.956 34.081 105.234 33.595 106.728 33.595C107.268 33.595 107.751 33.685 108.177 33.865C108.603 34.039 108.963 34.285 109.257 34.603C109.551 34.915 109.773 35.29 109.923 35.728C110.079 36.166 110.157 36.646 110.157 37.168V43H109.149C108.939 43 108.777 42.97 108.663 42.91C108.549 42.844 108.459 42.715 108.393 42.523L108.195 41.857C107.961 42.067 107.733 42.253 107.511 42.415C107.289 42.571 107.058 42.703 106.818 42.811C106.578 42.919 106.32 43 106.044 43.054C105.774 43.114 105.474 43.144 105.144 43.144C104.754 43.144 104.394 43.093 104.064 42.991C103.734 42.883 103.449 42.724 103.209 42.514C102.969 42.304 102.783 42.043 102.651 41.731C102.519 41.419 102.453 41.056 102.453 40.642C102.453 40.408 102.492 40.177 102.57 39.949C102.648 39.715 102.774 39.493 102.948 39.283C103.128 39.073 103.359 38.875 103.641 38.689C103.923 38.503 104.268 38.341 104.676 38.203C105.09 38.065 105.57 37.954 106.116 37.87C106.662 37.78 107.286 37.726 107.988 37.708V37.168C107.988 36.55 107.856 36.094 107.592 35.8C107.328 35.5 106.947 35.35 106.449 35.35C106.089 35.35 105.789 35.392 105.549 35.476C105.315 35.56 105.108 35.656 104.928 35.764C104.748 35.866 104.583 35.959 104.433 36.043C104.289 36.127 104.127 36.169 103.947 36.169C103.791 36.169 103.659 36.13 103.551 36.052C103.443 35.968 103.356 35.872 103.29 35.764L102.894 35.053ZM114.333 35.368C114.621 34.816 114.963 34.384 115.359 34.072C115.755 33.754 116.223 33.595 116.763 33.595C117.189 33.595 117.531 33.688 117.789 33.874L117.645 35.539C117.615 35.647 117.57 35.725 117.51 35.773C117.456 35.815 117.381 35.836 117.285 35.836C117.195 35.836 117.06 35.821 116.88 35.791C116.706 35.761 116.535 35.746 116.367 35.746C116.121 35.746 115.902 35.782 115.71 35.854C115.518 35.926 115.344 36.031 115.188 36.169C115.038 36.301 114.903 36.463 114.783 36.655C114.669 36.847 114.561 37.066 114.459 37.312V43H112.236V33.766H113.541C113.769 33.766 113.928 33.808 114.018 33.892C114.108 33.97 114.168 34.114 114.198 34.324L114.333 35.368Z" fill="white"/>
</svg>
